<?xml version="1.0" encoding="UTF-8" standalone="no"?>
<!DOCTYPE svg PUBLIC "-//W3C//DTD SVG 1.1//EN" "http://www.w3.org/Graphics/SVG/1.1/DTD/svg11.dtd">
<svg width="100%" height="100%" viewBox="0 0 1156 993" version="1.1" xmlns="http://www.w3.org/2000/svg" style="fill-rule:evenodd;clip-rule:evenodd;stroke-linejoin:round;stroke-miterlimit:2;">
    <g transform="matrix(1,0,0,1,-1342,-245)">
        <g transform="matrix(6.67826,0,0,6.67826,1342.36,244.884)">
            <g id="Layer_1">
                <path id="XMLID_71_" d="M172.729,43.179C171.728,33.327 168.02,23.962 161.253,16.248C156.517,10.834 150.562,6.477 143.931,3.689C121.926,-5.486 101.058,4.149 86.686,18.169C69.255,1.037 48.441,-4.241 29.413,3.689C17.45,8.669 7.652,18.954 3.186,31.215L3.159,31.297C-2.498,44.37 0.209,60.853 5.27,73.655C5.487,74.197 5.703,74.711 5.92,75.225C11.387,88.271 18.912,100.478 27.356,111.792C34.908,121.942 43.325,131.577 52.717,140.076C56.534,143.513 60.973,146.491 65.98,147.871C71.095,149.278 76.509,148.25 80.054,144.136C84.304,139.183 84.52,132.389 84.168,126.191C83.763,119.397 83.086,112.685 81.408,106.081C79.215,97.447 75.588,89.164 70.527,81.829L69.878,80.909C63.003,71.003 60.161,66.889 51.364,57.686C49.821,56.062 48.089,55.386 46.249,55.656C45.355,55.792 44.029,56.225 42.838,57.605C38.102,62.991 37.831,71.95 40.267,77.905C37.804,74.954 35.801,71.896 34.285,68.756C33.933,67.998 33.555,67.268 33.203,66.537C29.982,59.933 26.923,53.707 26.626,41.176C26.517,36.385 26.382,29.808 22.322,25.992C20.86,24.611 19.074,23.772 17.017,23.42C21.131,18.197 26.544,14.001 32.634,11.457C54.369,2.39 72.719,16.302 80.677,24.016C75.967,29.185 67.685,39.741 67.685,50.026C67.685,60.501 76.211,69.027 86.686,69.027C97.16,69.027 105.686,60.501 105.686,50.026C105.686,38.713 97.647,28.806 92.857,23.88C105.172,12.025 122.657,3.906 140.737,11.43C146.854,13.974 152.294,18.197 156.381,23.447C154.405,23.799 152.7,24.665 151.293,25.965C147.233,29.754 147.098,36.331 146.989,41.149C146.719,53.68 143.66,59.906 140.412,66.51C140.06,67.241 139.681,67.998 139.33,68.729C137.814,71.869 135.838,74.927 133.348,77.878C135.784,71.923 135.513,62.964 130.777,57.578C129.586,56.198 128.259,55.765 127.366,55.629C125.526,55.359 123.821,56.062 122.251,57.659C113.454,66.835 110.612,70.949 103.737,80.882L103.088,81.802C95.645,92.548 91.476,105.16 90.042,118.098C89.528,122.754 89.311,127.517 89.338,132.2C89.392,138.506 92.613,145.57 98.865,147.844C100.219,148.331 101.653,148.575 103.142,148.575C110.287,148.575 116.973,143.567 121.98,138.912C132.671,129.006 142.172,117.557 150.454,105.594C157.058,96.039 162.958,85.943 167.451,75.225C170.185,68.675 171.971,61.746 172.702,54.709C173.081,50.838 173.108,46.968 172.729,43.179ZM18.262,41.311C18.587,55.683 22.349,63.37 25.678,70.164C26.03,70.895 26.382,71.598 26.734,72.329C30.713,80.611 37.371,88.217 46.601,94.956C47.9,95.904 51.337,98.421 54.937,96.229C58.726,93.928 56.398,89.543 55.397,87.676C54.477,85.943 53.151,83.724 51.878,81.613C50.363,79.096 48.82,76.497 48.17,75.09C47.034,72.627 46.736,68.865 47.629,65.914C54.206,72.952 56.859,76.822 62.976,85.646L63.625,86.566C72.449,99.314 76.536,115.392 75.724,134.338C75.453,135.583 74.289,139.129 71.88,139.995C69.12,140.996 64.275,138.777 58.591,133.905C58.32,133.688 58.022,133.499 57.725,133.336C42.27,119.181 23.215,94.929 13.58,71.977C9.574,62.423 7.95,52.814 8.789,44.126C9.655,36.737 11.983,31.703 14.581,31.594C16.016,31.54 16.449,31.919 16.584,32.054C18.073,33.435 18.181,38.361 18.262,41.311ZM75.994,49.999C75.994,42.989 82.355,34.463 86.794,29.618C91.152,34.057 97.296,42.069 97.296,49.999C97.296,55.873 92.505,60.664 86.632,60.664C80.758,60.664 75.994,55.873 75.994,49.999ZM159.71,71.977C149.94,95.308 130.425,119.939 114.835,134.013C109.232,138.804 104.441,140.969 101.707,139.995C99.082,139.047 98.053,135.177 97.837,134.284C97.025,115.364 101.112,99.314 109.936,86.539L110.585,85.619C116.702,76.795 119.355,72.925 125.932,65.887C126.825,68.838 126.554,72.6 125.39,75.063C124.741,76.47 123.171,79.069 121.682,81.586C120.41,83.724 119.084,85.916 118.164,87.649C117.162,89.516 114.835,93.901 118.624,96.202C122.251,98.394 125.688,95.877 127.014,94.902C136.19,88.19 142.848,80.611 146.827,72.302C147.179,71.571 147.531,70.867 147.882,70.137C151.212,63.343 154.974,55.656 155.299,41.284C155.353,38.334 155.461,33.408 156.95,32.027C157.085,31.892 157.518,31.486 158.953,31.567C160.495,31.648 161.957,33.489 163.067,36.547C166.098,47.103 164.934,59.554 159.71,71.977Z" style="fill:rgb(95,191,191);fill-rule:nonzero;"/>
            </g>
        </g>
    </g>
</svg>
