<?xml version="1.0" encoding="UTF-8" standalone="no"?>
<!DOCTYPE svg PUBLIC "-//W3C//DTD SVG 1.1//EN" "http://www.w3.org/Graphics/SVG/1.1/DTD/svg11.dtd">
<svg width="100%" height="100%" viewBox="0 0 3840 2160" version="1.1" xmlns="http://www.w3.org/2000/svg" style="fill-rule:evenodd;clip-rule:evenodd;stroke-linejoin:round;stroke-miterlimit:2;">
    <g transform="matrix(6.67826,0,0,6.67826,1342.36,244.884)">
        <g id="Layer_1">
            <path id="XMLID_71_" d="M172.729,43.179C171.728,33.327 168.02,23.962 161.253,16.248C156.517,10.834 150.562,6.477 143.931,3.689C121.926,-5.486 101.058,4.149 86.686,18.169C69.255,1.037 48.441,-4.241 29.413,3.689C17.45,8.669 7.652,18.954 3.186,31.215L3.159,31.297C-2.498,44.37 0.209,60.853 5.27,73.655C5.487,74.197 5.703,74.711 5.92,75.225C11.387,88.271 18.912,100.478 27.356,111.792C34.908,121.942 43.325,131.577 52.717,140.076C56.534,143.513 60.973,146.491 65.98,147.871C71.095,149.278 76.509,148.25 80.054,144.136C84.304,139.183 84.52,132.389 84.168,126.191C83.763,119.397 83.086,112.685 81.408,106.081C79.215,97.447 75.588,89.164 70.527,81.829L69.878,80.909C63.003,71.003 60.161,66.889 51.364,57.686C49.821,56.062 48.089,55.386 46.249,55.656C45.355,55.792 44.029,56.225 42.838,57.605C38.102,62.991 37.831,71.95 40.267,77.905C37.804,74.954 35.801,71.896 34.285,68.756C33.933,67.998 33.555,67.268 33.203,66.537C29.982,59.933 26.923,53.707 26.626,41.176C26.517,36.385 26.382,29.808 22.322,25.992C20.86,24.611 19.074,23.772 17.017,23.42C21.131,18.197 26.544,14.001 32.634,11.457C54.369,2.39 72.719,16.302 80.677,24.016C75.967,29.185 67.685,39.741 67.685,50.026C67.685,60.501 76.211,69.027 86.686,69.027C97.16,69.027 105.686,60.501 105.686,50.026C105.686,38.713 97.647,28.806 92.857,23.88C105.172,12.025 122.657,3.906 140.737,11.43C146.854,13.974 152.294,18.197 156.381,23.447C154.405,23.799 152.7,24.665 151.293,25.965C147.233,29.754 147.098,36.331 146.989,41.149C146.719,53.68 143.66,59.906 140.412,66.51C140.06,67.241 139.681,67.998 139.33,68.729C137.814,71.869 135.838,74.927 133.348,77.878C135.784,71.923 135.513,62.964 130.777,57.578C129.586,56.198 128.259,55.765 127.366,55.629C125.526,55.359 123.821,56.062 122.251,57.659C113.454,66.835 110.612,70.949 103.737,80.882L103.088,81.802C95.645,92.548 91.476,105.16 90.042,118.098C89.528,122.754 89.311,127.517 89.338,132.2C89.392,138.506 92.613,145.57 98.865,147.844C100.219,148.331 101.653,148.575 103.142,148.575C110.287,148.575 116.973,143.567 121.98,138.912C132.671,129.006 142.172,117.557 150.454,105.594C157.058,96.039 162.958,85.943 167.451,75.225C170.185,68.675 171.971,61.746 172.702,54.709C173.081,50.838 173.108,46.968 172.729,43.179ZM18.262,41.311C18.587,55.683 22.349,63.37 25.678,70.164C26.03,70.895 26.382,71.598 26.734,72.329C30.713,80.611 37.371,88.217 46.601,94.956C47.9,95.904 51.337,98.421 54.937,96.229C58.726,93.928 56.398,89.543 55.397,87.676C54.477,85.943 53.151,83.724 51.878,81.613C50.363,79.096 48.82,76.497 48.17,75.09C47.034,72.627 46.736,68.865 47.629,65.914C54.206,72.952 56.859,76.822 62.976,85.646L63.625,86.566C72.449,99.314 76.536,115.392 75.724,134.338C75.453,135.583 74.289,139.129 71.88,139.995C69.12,140.996 64.275,138.777 58.591,133.905C58.32,133.688 58.022,133.499 57.725,133.336C42.27,119.181 23.215,94.929 13.58,71.977C9.574,62.423 7.95,52.814 8.789,44.126C9.655,36.737 11.983,31.703 14.581,31.594C16.016,31.54 16.449,31.919 16.584,32.054C18.073,33.435 18.181,38.361 18.262,41.311ZM75.994,49.999C75.994,42.989 82.355,34.463 86.794,29.618C91.152,34.057 97.296,42.069 97.296,49.999C97.296,55.873 92.505,60.664 86.632,60.664C80.758,60.664 75.994,55.873 75.994,49.999ZM159.71,71.977C149.94,95.308 130.425,119.939 114.835,134.013C109.232,138.804 104.441,140.969 101.707,139.995C99.082,139.047 98.053,135.177 97.837,134.284C97.025,115.364 101.112,99.314 109.936,86.539L110.585,85.619C116.702,76.795 119.355,72.925 125.932,65.887C126.825,68.838 126.554,72.6 125.39,75.063C124.741,76.47 123.171,79.069 121.682,81.586C120.41,83.724 119.084,85.916 118.164,87.649C117.162,89.516 114.835,93.901 118.624,96.202C122.251,98.394 125.688,95.877 127.014,94.902C136.19,88.19 142.848,80.611 146.827,72.302C147.179,71.571 147.531,70.867 147.882,70.137C151.212,63.343 154.974,55.656 155.299,41.284C155.353,38.334 155.461,33.408 156.95,32.027C157.085,31.892 157.518,31.486 158.953,31.567C160.495,31.648 161.957,33.489 163.067,36.547C166.098,47.103 164.934,59.554 159.71,71.977Z" style="fill:rgb(95,191,191);fill-rule:nonzero;"/>
        </g>
    </g>
    <g transform="matrix(6.67826,0,0,6.67826,606.976,-282.364)">
        <g transform="matrix(17,0,0,17,146.203,329.038)">
            <path d="M0.27,-0.7C0.367,-0.7 0.442,-0.682 0.495,-0.645C0.547,-0.607 0.573,-0.552 0.573,-0.479C0.573,-0.439 0.566,-0.405 0.552,-0.377C0.537,-0.348 0.517,-0.325 0.49,-0.308C0.462,-0.29 0.43,-0.277 0.391,-0.269C0.352,-0.261 0.309,-0.257 0.26,-0.257L0.183,-0.257L0.183,-0L0.086,-0L0.086,-0.683C0.113,-0.69 0.144,-0.694 0.178,-0.697C0.211,-0.699 0.242,-0.7 0.27,-0.7ZM0.278,-0.615C0.237,-0.615 0.205,-0.614 0.183,-0.612L0.183,-0.34L0.256,-0.34C0.289,-0.34 0.319,-0.342 0.346,-0.347C0.373,-0.351 0.395,-0.358 0.414,-0.369C0.432,-0.379 0.446,-0.393 0.456,-0.411C0.466,-0.429 0.471,-0.452 0.471,-0.48C0.471,-0.507 0.466,-0.529 0.456,-0.546C0.445,-0.563 0.431,-0.577 0.414,-0.588C0.396,-0.598 0.375,-0.605 0.352,-0.609C0.329,-0.613 0.304,-0.615 0.278,-0.615Z" style="fill:rgb(124,124,124);fill-rule:nonzero;"/>
        </g>
        <g transform="matrix(17,0,0,17,157.559,329.038)">
            <path d="M0.256,-0.067C0.278,-0.067 0.298,-0.068 0.315,-0.069C0.332,-0.07 0.346,-0.071 0.357,-0.074L0.357,-0.229C0.35,-0.232 0.339,-0.235 0.325,-0.238C0.31,-0.24 0.291,-0.241 0.27,-0.241C0.256,-0.241 0.241,-0.24 0.226,-0.238C0.21,-0.236 0.196,-0.232 0.183,-0.226C0.169,-0.219 0.159,-0.211 0.15,-0.2C0.141,-0.189 0.137,-0.174 0.137,-0.156C0.137,-0.123 0.148,-0.099 0.169,-0.087C0.19,-0.074 0.219,-0.067 0.256,-0.067ZM0.248,-0.533C0.285,-0.533 0.317,-0.528 0.343,-0.519C0.368,-0.509 0.389,-0.495 0.405,-0.478C0.42,-0.46 0.431,-0.439 0.438,-0.415C0.445,-0.39 0.448,-0.363 0.448,-0.334L0.448,-0.009C0.44,-0.008 0.429,-0.006 0.415,-0.004C0.4,-0.001 0.384,0.001 0.366,0.003C0.348,0.005 0.329,0.007 0.308,0.009C0.287,0.01 0.266,0.011 0.245,0.011C0.216,0.011 0.189,0.008 0.164,0.002C0.139,-0.004 0.118,-0.014 0.1,-0.027C0.082,-0.04 0.068,-0.057 0.058,-0.078C0.048,-0.099 0.043,-0.125 0.043,-0.155C0.043,-0.184 0.049,-0.208 0.061,-0.229C0.072,-0.25 0.088,-0.266 0.108,-0.279C0.128,-0.292 0.151,-0.301 0.178,-0.307C0.205,-0.313 0.233,-0.316 0.262,-0.316C0.271,-0.316 0.281,-0.316 0.291,-0.315C0.301,-0.314 0.311,-0.312 0.32,-0.311C0.329,-0.309 0.336,-0.307 0.343,-0.306C0.35,-0.305 0.354,-0.304 0.357,-0.303L0.357,-0.329C0.357,-0.344 0.355,-0.36 0.352,-0.375C0.349,-0.39 0.343,-0.403 0.334,-0.415C0.325,-0.426 0.314,-0.436 0.299,-0.443C0.284,-0.45 0.264,-0.453 0.24,-0.453C0.209,-0.453 0.183,-0.451 0.16,-0.447C0.136,-0.442 0.119,-0.438 0.108,-0.433L0.097,-0.51C0.109,-0.515 0.129,-0.521 0.157,-0.526C0.185,-0.531 0.215,-0.533 0.248,-0.533Z" style="fill:rgb(124,124,124);fill-rule:nonzero;"/>
        </g>
        <g transform="matrix(17,0,0,17,167.453,329.038)">
            <path d="M0.272,-0.531C0.28,-0.531 0.289,-0.531 0.3,-0.53C0.31,-0.529 0.32,-0.527 0.33,-0.526C0.34,-0.524 0.349,-0.522 0.358,-0.521C0.366,-0.519 0.372,-0.517 0.376,-0.516L0.36,-0.435C0.353,-0.438 0.341,-0.441 0.324,-0.445C0.307,-0.448 0.285,-0.45 0.258,-0.45C0.241,-0.45 0.224,-0.448 0.207,-0.445C0.19,-0.441 0.178,-0.438 0.173,-0.437L0.173,-0L0.08,-0L0.08,-0.498C0.102,-0.506 0.129,-0.514 0.162,-0.521C0.195,-0.528 0.231,-0.531 0.272,-0.531Z" style="fill:rgb(124,124,124);fill-rule:nonzero;"/>
        </g>
        <g transform="matrix(17,0,0,17,175.035,329.038)">
            <path d="M0.167,-0.52L0.364,-0.52L0.364,-0.442L0.167,-0.442L0.167,-0.202C0.167,-0.176 0.169,-0.155 0.173,-0.138C0.177,-0.121 0.183,-0.107 0.191,-0.098C0.199,-0.088 0.209,-0.081 0.221,-0.077C0.233,-0.073 0.247,-0.071 0.263,-0.071C0.291,-0.071 0.314,-0.074 0.331,-0.081C0.347,-0.087 0.359,-0.091 0.366,-0.094L0.384,-0.017C0.375,-0.012 0.358,-0.007 0.335,0.001C0.312,0.008 0.285,0.011 0.255,0.011C0.22,0.011 0.191,0.007 0.168,-0.003C0.145,-0.012 0.126,-0.025 0.112,-0.043C0.098,-0.061 0.088,-0.083 0.083,-0.11C0.077,-0.136 0.074,-0.166 0.074,-0.201L0.074,-0.665L0.167,-0.681L0.167,-0.52Z" style="fill:rgb(124,124,124);fill-rule:nonzero;"/>
        </g>
        <g transform="matrix(17,0,0,17,182.889,329.038)">
            <path d="M0.08,-0.505C0.101,-0.51 0.13,-0.516 0.165,-0.522C0.2,-0.528 0.241,-0.531 0.287,-0.531C0.328,-0.531 0.363,-0.525 0.39,-0.514C0.417,-0.502 0.439,-0.486 0.456,-0.465C0.472,-0.444 0.483,-0.418 0.49,-0.389C0.497,-0.36 0.5,-0.327 0.5,-0.292L0.5,-0L0.407,-0L0.407,-0.272C0.407,-0.304 0.405,-0.331 0.401,-0.354C0.396,-0.377 0.389,-0.395 0.379,-0.409C0.369,-0.423 0.356,-0.433 0.339,-0.44C0.322,-0.446 0.302,-0.449 0.277,-0.449C0.267,-0.449 0.257,-0.449 0.246,-0.448C0.235,-0.447 0.225,-0.447 0.216,-0.446C0.206,-0.444 0.197,-0.443 0.19,-0.442C0.182,-0.441 0.176,-0.44 0.173,-0.439L0.173,-0L0.08,-0L0.08,-0.505Z" style="fill:rgb(124,124,124);fill-rule:nonzero;"/>
        </g>
        <g transform="matrix(17,0,0,17,193.667,329.038)">
            <path d="M0.051,-0.259C0.051,-0.305 0.058,-0.345 0.071,-0.38C0.084,-0.414 0.102,-0.442 0.124,-0.465C0.146,-0.488 0.171,-0.505 0.2,-0.516C0.229,-0.527 0.258,-0.533 0.288,-0.533C0.358,-0.533 0.412,-0.511 0.449,-0.468C0.486,-0.424 0.505,-0.357 0.505,-0.268L0.505,-0.253C0.505,-0.246 0.505,-0.24 0.504,-0.235L0.148,-0.235C0.152,-0.181 0.168,-0.14 0.195,-0.112C0.222,-0.084 0.265,-0.07 0.323,-0.07C0.356,-0.07 0.383,-0.073 0.406,-0.079C0.428,-0.084 0.445,-0.09 0.456,-0.095L0.469,-0.017C0.458,-0.011 0.438,-0.005 0.41,0.002C0.381,0.009 0.349,0.012 0.313,0.012C0.268,0.012 0.229,0.005 0.196,-0.009C0.163,-0.022 0.135,-0.041 0.114,-0.065C0.093,-0.089 0.077,-0.118 0.067,-0.151C0.056,-0.184 0.051,-0.22 0.051,-0.259ZM0.408,-0.31C0.409,-0.352 0.398,-0.387 0.377,-0.414C0.355,-0.441 0.325,-0.454 0.287,-0.454C0.266,-0.454 0.247,-0.45 0.231,-0.442C0.214,-0.433 0.2,-0.422 0.189,-0.409C0.178,-0.396 0.169,-0.38 0.163,-0.363C0.156,-0.346 0.152,-0.328 0.15,-0.31L0.408,-0.31Z" style="fill:rgb(124,124,124);fill-rule:nonzero;"/>
        </g>
        <g transform="matrix(17,0,0,17,204.19,329.038)">
            <path d="M0.272,-0.531C0.28,-0.531 0.289,-0.531 0.3,-0.53C0.31,-0.529 0.32,-0.527 0.33,-0.526C0.34,-0.524 0.349,-0.522 0.358,-0.521C0.366,-0.519 0.372,-0.517 0.376,-0.516L0.36,-0.435C0.353,-0.438 0.341,-0.441 0.324,-0.445C0.307,-0.448 0.285,-0.45 0.258,-0.45C0.241,-0.45 0.224,-0.448 0.207,-0.445C0.19,-0.441 0.178,-0.438 0.173,-0.437L0.173,-0L0.08,-0L0.08,-0.498C0.102,-0.506 0.129,-0.514 0.162,-0.521C0.195,-0.528 0.231,-0.531 0.272,-0.531Z" style="fill:rgb(124,124,124);fill-rule:nonzero;"/>
        </g>
        <g transform="matrix(17,0,0,17,211.772,329.038)">
            <path d="M0.201,-0.067C0.239,-0.067 0.267,-0.072 0.286,-0.082C0.304,-0.092 0.313,-0.108 0.313,-0.13C0.313,-0.153 0.304,-0.171 0.286,-0.184C0.268,-0.197 0.238,-0.212 0.197,-0.229C0.177,-0.237 0.158,-0.245 0.14,-0.254C0.121,-0.262 0.105,-0.272 0.092,-0.283C0.079,-0.294 0.068,-0.308 0.06,-0.324C0.052,-0.34 0.048,-0.36 0.048,-0.383C0.048,-0.429 0.065,-0.466 0.099,-0.493C0.133,-0.52 0.179,-0.533 0.238,-0.533C0.253,-0.533 0.267,-0.532 0.282,-0.531C0.297,-0.529 0.31,-0.527 0.323,-0.525C0.336,-0.522 0.347,-0.52 0.357,-0.517C0.366,-0.514 0.374,-0.512 0.379,-0.51L0.362,-0.43C0.352,-0.435 0.336,-0.441 0.315,-0.447C0.294,-0.452 0.268,-0.455 0.238,-0.455C0.212,-0.455 0.189,-0.45 0.17,-0.44C0.151,-0.429 0.141,-0.413 0.141,-0.391C0.141,-0.38 0.143,-0.37 0.148,-0.361C0.152,-0.352 0.159,-0.345 0.168,-0.338C0.177,-0.331 0.188,-0.324 0.201,-0.318C0.214,-0.312 0.23,-0.306 0.249,-0.299C0.274,-0.29 0.296,-0.281 0.315,-0.272C0.334,-0.263 0.351,-0.252 0.365,-0.24C0.378,-0.228 0.389,-0.214 0.396,-0.197C0.403,-0.18 0.407,-0.159 0.407,-0.134C0.407,-0.086 0.389,-0.05 0.354,-0.025C0.318,-0 0.267,0.012 0.201,0.012C0.155,0.012 0.119,0.008 0.093,0.001C0.067,-0.007 0.049,-0.013 0.04,-0.017L0.057,-0.097C0.068,-0.093 0.085,-0.087 0.108,-0.079C0.131,-0.071 0.162,-0.067 0.201,-0.067Z" style="fill:rgb(124,124,124);fill-rule:nonzero;"/>
        </g>
        <g transform="matrix(17,0,0,17,220.374,329.038)">
            <path d="M0.08,-0L0.08,-0.76L0.173,-0.776L0.173,-0.51C0.19,-0.517 0.209,-0.522 0.229,-0.526C0.248,-0.529 0.268,-0.531 0.287,-0.531C0.328,-0.531 0.363,-0.525 0.39,-0.514C0.417,-0.502 0.439,-0.486 0.456,-0.465C0.472,-0.444 0.483,-0.418 0.49,-0.389C0.497,-0.36 0.5,-0.327 0.5,-0.292L0.5,-0L0.407,-0L0.407,-0.272C0.407,-0.304 0.405,-0.331 0.401,-0.354C0.396,-0.377 0.389,-0.395 0.379,-0.409C0.369,-0.423 0.356,-0.433 0.339,-0.44C0.322,-0.446 0.302,-0.449 0.277,-0.449C0.267,-0.449 0.257,-0.448 0.246,-0.447C0.235,-0.446 0.225,-0.444 0.216,-0.443C0.206,-0.441 0.197,-0.439 0.19,-0.437C0.182,-0.435 0.176,-0.433 0.173,-0.432L0.173,-0L0.08,-0Z" style="fill:rgb(124,124,124);fill-rule:nonzero;"/>
        </g>
        <g transform="matrix(17,0,0,17,231.101,329.038)">
            <path d="M0.173,-0L0.08,-0L0.08,-0.52L0.173,-0.52L0.173,-0ZM0.126,-0.614C0.109,-0.614 0.095,-0.62 0.084,-0.631C0.072,-0.642 0.066,-0.656 0.066,-0.675C0.066,-0.694 0.072,-0.709 0.084,-0.72C0.095,-0.731 0.109,-0.736 0.126,-0.736C0.143,-0.736 0.157,-0.731 0.169,-0.72C0.18,-0.709 0.186,-0.694 0.186,-0.675C0.186,-0.656 0.18,-0.642 0.169,-0.631C0.157,-0.62 0.143,-0.614 0.126,-0.614Z" style="fill:rgb(124,124,124);fill-rule:nonzero;"/>
        </g>
        <g transform="matrix(17,0,0,17,236.422,329.038)">
            <path d="M0.441,-0.259C0.441,-0.32 0.426,-0.366 0.396,-0.399C0.366,-0.432 0.326,-0.448 0.276,-0.448C0.248,-0.448 0.226,-0.447 0.211,-0.445C0.195,-0.443 0.182,-0.441 0.173,-0.438L0.173,-0.11C0.184,-0.101 0.201,-0.092 0.222,-0.083C0.243,-0.074 0.267,-0.07 0.292,-0.07C0.319,-0.07 0.341,-0.075 0.361,-0.085C0.38,-0.094 0.395,-0.108 0.407,-0.125C0.419,-0.141 0.428,-0.162 0.433,-0.185C0.438,-0.208 0.441,-0.232 0.441,-0.259ZM0.538,-0.259C0.538,-0.22 0.533,-0.183 0.523,-0.15C0.512,-0.117 0.497,-0.088 0.477,-0.064C0.457,-0.04 0.433,-0.021 0.404,-0.008C0.375,0.005 0.341,0.012 0.304,0.012C0.274,0.012 0.248,0.008 0.225,-0C0.202,-0.008 0.184,-0.016 0.173,-0.023L0.173,0.185L0.08,0.185L0.08,-0.504C0.102,-0.509 0.13,-0.515 0.163,-0.522C0.196,-0.528 0.234,-0.531 0.277,-0.531C0.317,-0.531 0.353,-0.525 0.385,-0.512C0.417,-0.499 0.444,-0.481 0.467,-0.458C0.49,-0.435 0.507,-0.406 0.52,-0.373C0.532,-0.339 0.538,-0.301 0.538,-0.259Z" style="fill:rgb(124,124,124);fill-rule:nonzero;"/>
        </g>
    </g>
    <g transform="matrix(6.67826,0,0,6.67826,-395.649,-378.01)">
        <g transform="matrix(41,0,0,41,131.453,316.507)">
            <path d="M0.396,0.014C0.283,0.014 0.198,-0.017 0.139,-0.08C0.08,-0.143 0.05,-0.232 0.05,-0.347C0.05,-0.404 0.059,-0.456 0.077,-0.501C0.095,-0.546 0.12,-0.584 0.151,-0.615C0.182,-0.646 0.22,-0.669 0.263,-0.685C0.306,-0.701 0.353,-0.709 0.404,-0.709C0.433,-0.709 0.46,-0.707 0.484,-0.703C0.508,-0.698 0.529,-0.693 0.547,-0.688C0.565,-0.682 0.58,-0.676 0.592,-0.67C0.604,-0.664 0.613,-0.659 0.618,-0.656L0.573,-0.53C0.552,-0.541 0.527,-0.551 0.499,-0.559C0.47,-0.567 0.438,-0.571 0.402,-0.571C0.378,-0.571 0.355,-0.567 0.332,-0.559C0.309,-0.551 0.288,-0.538 0.271,-0.521C0.253,-0.503 0.239,-0.48 0.228,-0.452C0.217,-0.424 0.212,-0.39 0.212,-0.35C0.212,-0.318 0.216,-0.288 0.223,-0.261C0.23,-0.233 0.241,-0.209 0.257,-0.189C0.272,-0.169 0.293,-0.153 0.318,-0.142C0.343,-0.13 0.374,-0.124 0.41,-0.124C0.433,-0.124 0.453,-0.125 0.471,-0.128C0.489,-0.131 0.505,-0.134 0.519,-0.138C0.533,-0.141 0.545,-0.145 0.556,-0.15C0.567,-0.155 0.576,-0.159 0.585,-0.163L0.628,-0.038C0.606,-0.025 0.575,-0.013 0.535,-0.002C0.495,0.009 0.449,0.014 0.396,0.014Z" style="fill:rgb(95,191,191);fill-rule:nonzero;"/>
        </g>
        <g transform="matrix(41,0,0,41,158.841,316.507)">
            <path d="M0.562,-0.264C0.562,-0.223 0.556,-0.185 0.544,-0.151C0.532,-0.116 0.515,-0.087 0.492,-0.063C0.469,-0.038 0.442,-0.019 0.411,-0.006C0.379,0.007 0.343,0.014 0.304,0.014C0.265,0.014 0.23,0.007 0.199,-0.006C0.167,-0.019 0.14,-0.038 0.117,-0.063C0.094,-0.087 0.077,-0.116 0.064,-0.151C0.051,-0.185 0.045,-0.223 0.045,-0.264C0.045,-0.305 0.051,-0.343 0.065,-0.377C0.078,-0.411 0.096,-0.44 0.119,-0.464C0.141,-0.488 0.169,-0.507 0.201,-0.52C0.232,-0.533 0.267,-0.54 0.304,-0.54C0.342,-0.54 0.377,-0.533 0.409,-0.52C0.44,-0.507 0.467,-0.488 0.49,-0.464C0.513,-0.44 0.53,-0.411 0.543,-0.377C0.556,-0.343 0.562,-0.305 0.562,-0.264ZM0.41,-0.264C0.41,-0.31 0.401,-0.346 0.383,-0.373C0.364,-0.399 0.338,-0.412 0.304,-0.412C0.27,-0.412 0.244,-0.399 0.225,-0.373C0.206,-0.346 0.197,-0.31 0.197,-0.264C0.197,-0.218 0.206,-0.182 0.225,-0.155C0.244,-0.128 0.27,-0.114 0.304,-0.114C0.338,-0.114 0.364,-0.128 0.383,-0.155C0.401,-0.182 0.41,-0.218 0.41,-0.264Z" style="fill:rgb(95,191,191);fill-rule:nonzero;"/>
        </g>
        <g transform="matrix(41,0,0,41,184.548,316.507)">
            <path d="M0.519,-0.018C0.494,-0.011 0.461,-0.004 0.421,0.003C0.381,0.009 0.339,0.012 0.295,0.012C0.25,0.012 0.213,0.006 0.184,-0.006C0.154,-0.018 0.13,-0.035 0.113,-0.057C0.096,-0.078 0.083,-0.104 0.076,-0.134C0.069,-0.164 0.065,-0.197 0.065,-0.233L0.065,-0.526L0.214,-0.526L0.214,-0.251C0.214,-0.203 0.22,-0.168 0.233,-0.147C0.246,-0.126 0.269,-0.115 0.304,-0.115C0.315,-0.115 0.326,-0.116 0.338,-0.117C0.35,-0.118 0.361,-0.119 0.37,-0.12L0.37,-0.526L0.519,-0.526L0.519,-0.018Z" style="fill:rgb(95,191,191);fill-rule:nonzero;"/>
        </g>
        <g transform="matrix(41,0,0,41,209.517,316.507)">
            <path d="M0.28,0.01C0.237,0.009 0.202,0.005 0.175,-0.004C0.148,-0.013 0.126,-0.025 0.111,-0.041C0.095,-0.056 0.084,-0.075 0.079,-0.098C0.073,-0.12 0.07,-0.145 0.07,-0.173L0.07,-0.752L0.219,-0.776L0.219,-0.203C0.219,-0.19 0.22,-0.178 0.222,-0.167C0.224,-0.156 0.228,-0.147 0.234,-0.14C0.239,-0.133 0.247,-0.127 0.258,-0.122C0.269,-0.117 0.283,-0.114 0.301,-0.113L0.28,0.01Z" style="fill:rgb(95,191,191);fill-rule:nonzero;"/>
        </g>
        <g transform="matrix(41,0,0,41,223.293,316.507)">
            <path d="M0.221,-0.107C0.248,-0.107 0.268,-0.11 0.279,-0.115C0.29,-0.12 0.296,-0.131 0.296,-0.146C0.296,-0.158 0.289,-0.169 0.274,-0.178C0.259,-0.187 0.237,-0.197 0.207,-0.208C0.184,-0.217 0.163,-0.226 0.144,-0.235C0.125,-0.244 0.108,-0.256 0.095,-0.269C0.082,-0.282 0.071,-0.297 0.064,-0.315C0.057,-0.333 0.053,-0.355 0.053,-0.38C0.053,-0.429 0.071,-0.468 0.108,-0.497C0.145,-0.526 0.195,-0.54 0.259,-0.54C0.291,-0.54 0.322,-0.537 0.351,-0.532C0.38,-0.526 0.404,-0.52 0.421,-0.513L0.395,-0.397C0.378,-0.403 0.359,-0.408 0.339,-0.413C0.318,-0.418 0.295,-0.42 0.27,-0.42C0.223,-0.42 0.2,-0.407 0.2,-0.381C0.2,-0.375 0.201,-0.37 0.203,-0.365C0.205,-0.36 0.209,-0.356 0.215,-0.352C0.221,-0.347 0.229,-0.343 0.24,-0.338C0.25,-0.333 0.263,-0.327 0.279,-0.321C0.312,-0.309 0.339,-0.297 0.36,-0.286C0.381,-0.274 0.398,-0.261 0.411,-0.248C0.423,-0.234 0.432,-0.219 0.437,-0.202C0.442,-0.185 0.444,-0.166 0.444,-0.144C0.444,-0.092 0.425,-0.053 0.386,-0.026C0.347,0.001 0.291,0.014 0.22,0.014C0.173,0.014 0.134,0.01 0.104,0.002C0.073,-0.006 0.051,-0.013 0.039,-0.018L0.064,-0.139C0.089,-0.129 0.115,-0.121 0.142,-0.116C0.169,-0.11 0.195,-0.107 0.221,-0.107Z" style="fill:rgb(95,191,191);fill-rule:nonzero;"/>
        </g>
        <g transform="matrix(41,0,0,41,243.998,316.507)">
            <path d="M0.197,-0.267C0.197,-0.221 0.207,-0.184 0.228,-0.156C0.249,-0.128 0.279,-0.114 0.32,-0.114C0.333,-0.114 0.346,-0.115 0.357,-0.116C0.368,-0.117 0.378,-0.118 0.385,-0.119L0.385,-0.39C0.376,-0.396 0.364,-0.401 0.349,-0.405C0.334,-0.409 0.318,-0.411 0.303,-0.411C0.232,-0.411 0.197,-0.363 0.197,-0.267ZM0.534,-0.017C0.521,-0.013 0.505,-0.009 0.488,-0.006C0.471,-0.002 0.452,0.001 0.434,0.004C0.415,0.007 0.395,0.009 0.376,0.011C0.356,0.012 0.337,0.013 0.319,0.013C0.276,0.013 0.237,0.007 0.203,-0.006C0.169,-0.019 0.14,-0.037 0.117,-0.061C0.094,-0.084 0.076,-0.113 0.064,-0.147C0.051,-0.18 0.045,-0.218 0.045,-0.26C0.045,-0.303 0.05,-0.341 0.061,-0.376C0.072,-0.41 0.087,-0.439 0.107,-0.463C0.127,-0.487 0.152,-0.505 0.181,-0.518C0.21,-0.531 0.243,-0.537 0.28,-0.537C0.301,-0.537 0.319,-0.535 0.336,-0.531C0.352,-0.527 0.368,-0.521 0.385,-0.514L0.385,-0.752L0.534,-0.776L0.534,-0.017Z" style="fill:rgb(95,191,191);fill-rule:nonzero;"/>
        </g>
        <g transform="matrix(41,0,0,41,269.582,316.507)">
            <path d="M0.562,-0.264C0.562,-0.223 0.556,-0.185 0.544,-0.151C0.532,-0.116 0.515,-0.087 0.492,-0.063C0.469,-0.038 0.442,-0.019 0.411,-0.006C0.379,0.007 0.343,0.014 0.304,0.014C0.265,0.014 0.23,0.007 0.199,-0.006C0.167,-0.019 0.14,-0.038 0.117,-0.063C0.094,-0.087 0.077,-0.116 0.064,-0.151C0.051,-0.185 0.045,-0.223 0.045,-0.264C0.045,-0.305 0.051,-0.343 0.065,-0.377C0.078,-0.411 0.096,-0.44 0.119,-0.464C0.141,-0.488 0.169,-0.507 0.201,-0.52C0.232,-0.533 0.267,-0.54 0.304,-0.54C0.342,-0.54 0.377,-0.533 0.409,-0.52C0.44,-0.507 0.467,-0.488 0.49,-0.464C0.513,-0.44 0.53,-0.411 0.543,-0.377C0.556,-0.343 0.562,-0.305 0.562,-0.264ZM0.41,-0.264C0.41,-0.31 0.401,-0.346 0.383,-0.373C0.364,-0.399 0.338,-0.412 0.304,-0.412C0.27,-0.412 0.244,-0.399 0.225,-0.373C0.206,-0.346 0.197,-0.31 0.197,-0.264C0.197,-0.218 0.206,-0.182 0.225,-0.155C0.244,-0.128 0.27,-0.114 0.304,-0.114C0.338,-0.114 0.364,-0.128 0.383,-0.155C0.401,-0.182 0.41,-0.218 0.41,-0.264Z" style="fill:rgb(95,191,191);fill-rule:nonzero;"/>
        </g>
        <g transform="matrix(41,0,0,41,295.289,316.507)">
            <path d="M0.07,-0.508C0.095,-0.515 0.128,-0.522 0.168,-0.529C0.208,-0.535 0.25,-0.538 0.294,-0.538C0.339,-0.538 0.376,-0.532 0.406,-0.521C0.435,-0.509 0.459,-0.492 0.476,-0.471C0.493,-0.45 0.506,-0.424 0.513,-0.395C0.52,-0.366 0.524,-0.333 0.524,-0.297L0.524,-0L0.375,-0L0.375,-0.279C0.375,-0.327 0.369,-0.361 0.356,-0.381C0.343,-0.401 0.32,-0.411 0.285,-0.411C0.274,-0.411 0.263,-0.411 0.251,-0.41C0.239,-0.409 0.228,-0.407 0.219,-0.406L0.219,-0L0.07,-0L0.07,-0.508Z" style="fill:rgb(95,191,191);fill-rule:nonzero;"/>
        </g>
        <g transform="matrix(41,0,0,41,330.918,316.507)">
            <path d="M0.396,0.014C0.283,0.014 0.198,-0.017 0.139,-0.08C0.08,-0.143 0.05,-0.232 0.05,-0.347C0.05,-0.404 0.059,-0.456 0.077,-0.501C0.095,-0.546 0.12,-0.584 0.151,-0.615C0.182,-0.646 0.22,-0.669 0.263,-0.685C0.306,-0.701 0.353,-0.709 0.404,-0.709C0.433,-0.709 0.46,-0.707 0.484,-0.703C0.508,-0.698 0.529,-0.693 0.547,-0.688C0.565,-0.682 0.58,-0.676 0.592,-0.67C0.604,-0.664 0.613,-0.659 0.618,-0.656L0.573,-0.53C0.552,-0.541 0.527,-0.551 0.499,-0.559C0.47,-0.567 0.438,-0.571 0.402,-0.571C0.378,-0.571 0.355,-0.567 0.332,-0.559C0.309,-0.551 0.288,-0.538 0.271,-0.521C0.253,-0.503 0.239,-0.48 0.228,-0.452C0.217,-0.424 0.212,-0.39 0.212,-0.35C0.212,-0.318 0.216,-0.288 0.223,-0.261C0.23,-0.233 0.241,-0.209 0.257,-0.189C0.272,-0.169 0.293,-0.153 0.318,-0.142C0.343,-0.13 0.374,-0.124 0.41,-0.124C0.433,-0.124 0.453,-0.125 0.471,-0.128C0.489,-0.131 0.505,-0.134 0.519,-0.138C0.533,-0.141 0.545,-0.145 0.556,-0.15C0.567,-0.155 0.576,-0.159 0.585,-0.163L0.628,-0.038C0.606,-0.025 0.575,-0.013 0.535,-0.002C0.495,0.009 0.449,0.014 0.396,0.014Z" style="fill:rgb(95,191,191);fill-rule:nonzero;"/>
        </g>
        <g transform="matrix(41,0,0,41,358.306,316.507)">
            <path d="M0.562,-0.264C0.562,-0.223 0.556,-0.185 0.544,-0.151C0.532,-0.116 0.515,-0.087 0.492,-0.063C0.469,-0.038 0.442,-0.019 0.411,-0.006C0.379,0.007 0.343,0.014 0.304,0.014C0.265,0.014 0.23,0.007 0.199,-0.006C0.167,-0.019 0.14,-0.038 0.117,-0.063C0.094,-0.087 0.077,-0.116 0.064,-0.151C0.051,-0.185 0.045,-0.223 0.045,-0.264C0.045,-0.305 0.051,-0.343 0.065,-0.377C0.078,-0.411 0.096,-0.44 0.119,-0.464C0.141,-0.488 0.169,-0.507 0.201,-0.52C0.232,-0.533 0.267,-0.54 0.304,-0.54C0.342,-0.54 0.377,-0.533 0.409,-0.52C0.44,-0.507 0.467,-0.488 0.49,-0.464C0.513,-0.44 0.53,-0.411 0.543,-0.377C0.556,-0.343 0.562,-0.305 0.562,-0.264ZM0.41,-0.264C0.41,-0.31 0.401,-0.346 0.383,-0.373C0.364,-0.399 0.338,-0.412 0.304,-0.412C0.27,-0.412 0.244,-0.399 0.225,-0.373C0.206,-0.346 0.197,-0.31 0.197,-0.264C0.197,-0.218 0.206,-0.182 0.225,-0.155C0.244,-0.128 0.27,-0.114 0.304,-0.114C0.338,-0.114 0.364,-0.128 0.383,-0.155C0.401,-0.182 0.41,-0.218 0.41,-0.264Z" style="fill:rgb(95,191,191);fill-rule:nonzero;"/>
        </g>
        <g transform="matrix(41,0,0,41,384.013,316.507)">
            <path d="M0.359,-0.279C0.359,-0.327 0.353,-0.361 0.341,-0.381C0.328,-0.401 0.307,-0.411 0.277,-0.411C0.268,-0.411 0.258,-0.411 0.248,-0.41C0.238,-0.409 0.228,-0.407 0.219,-0.406L0.219,-0L0.07,-0L0.07,-0.508C0.083,-0.511 0.097,-0.515 0.115,-0.519C0.132,-0.522 0.15,-0.526 0.169,-0.529C0.188,-0.532 0.207,-0.534 0.227,-0.536C0.247,-0.537 0.267,-0.538 0.286,-0.538C0.324,-0.538 0.355,-0.533 0.379,-0.524C0.402,-0.514 0.422,-0.502 0.437,-0.489C0.458,-0.504 0.483,-0.516 0.511,-0.525C0.538,-0.534 0.564,-0.538 0.587,-0.538C0.629,-0.538 0.664,-0.532 0.691,-0.521C0.717,-0.509 0.739,-0.492 0.755,-0.471C0.771,-0.45 0.782,-0.424 0.788,-0.395C0.794,-0.366 0.797,-0.333 0.797,-0.297L0.797,-0L0.648,-0L0.648,-0.279C0.648,-0.327 0.642,-0.361 0.63,-0.381C0.617,-0.401 0.596,-0.411 0.566,-0.411C0.558,-0.411 0.547,-0.409 0.533,-0.405C0.518,-0.401 0.506,-0.396 0.497,-0.39C0.502,-0.375 0.505,-0.359 0.506,-0.342C0.507,-0.325 0.508,-0.306 0.508,-0.287L0.508,-0L0.359,-0L0.359,-0.279Z" style="fill:rgb(95,191,191);fill-rule:nonzero;"/>
        </g>
        <g transform="matrix(41,0,0,41,420.175,316.507)">
            <path d="M0.359,-0.279C0.359,-0.327 0.353,-0.361 0.341,-0.381C0.328,-0.401 0.307,-0.411 0.277,-0.411C0.268,-0.411 0.258,-0.411 0.248,-0.41C0.238,-0.409 0.228,-0.407 0.219,-0.406L0.219,-0L0.07,-0L0.07,-0.508C0.083,-0.511 0.097,-0.515 0.115,-0.519C0.132,-0.522 0.15,-0.526 0.169,-0.529C0.188,-0.532 0.207,-0.534 0.227,-0.536C0.247,-0.537 0.267,-0.538 0.286,-0.538C0.324,-0.538 0.355,-0.533 0.379,-0.524C0.402,-0.514 0.422,-0.502 0.437,-0.489C0.458,-0.504 0.483,-0.516 0.511,-0.525C0.538,-0.534 0.564,-0.538 0.587,-0.538C0.629,-0.538 0.664,-0.532 0.691,-0.521C0.717,-0.509 0.739,-0.492 0.755,-0.471C0.771,-0.45 0.782,-0.424 0.788,-0.395C0.794,-0.366 0.797,-0.333 0.797,-0.297L0.797,-0L0.648,-0L0.648,-0.279C0.648,-0.327 0.642,-0.361 0.63,-0.381C0.617,-0.401 0.596,-0.411 0.566,-0.411C0.558,-0.411 0.547,-0.409 0.533,-0.405C0.518,-0.401 0.506,-0.396 0.497,-0.39C0.502,-0.375 0.505,-0.359 0.506,-0.342C0.507,-0.325 0.508,-0.306 0.508,-0.287L0.508,-0L0.359,-0L0.359,-0.279Z" style="fill:rgb(95,191,191);fill-rule:nonzero;"/>
        </g>
        <g transform="matrix(41,0,0,41,456.337,316.507)">
            <path d="M0.519,-0.018C0.494,-0.011 0.461,-0.004 0.421,0.003C0.381,0.009 0.339,0.012 0.295,0.012C0.25,0.012 0.213,0.006 0.184,-0.006C0.154,-0.018 0.13,-0.035 0.113,-0.057C0.096,-0.078 0.083,-0.104 0.076,-0.134C0.069,-0.164 0.065,-0.197 0.065,-0.233L0.065,-0.526L0.214,-0.526L0.214,-0.251C0.214,-0.203 0.22,-0.168 0.233,-0.147C0.246,-0.126 0.269,-0.115 0.304,-0.115C0.315,-0.115 0.326,-0.116 0.338,-0.117C0.35,-0.118 0.361,-0.119 0.37,-0.12L0.37,-0.526L0.519,-0.526L0.519,-0.018Z" style="fill:rgb(95,191,191);fill-rule:nonzero;"/>
        </g>
        <g transform="matrix(41,0,0,41,481.306,316.507)">
            <path d="M0.07,-0.508C0.095,-0.515 0.128,-0.522 0.168,-0.529C0.208,-0.535 0.25,-0.538 0.294,-0.538C0.339,-0.538 0.376,-0.532 0.406,-0.521C0.435,-0.509 0.459,-0.492 0.476,-0.471C0.493,-0.45 0.506,-0.424 0.513,-0.395C0.52,-0.366 0.524,-0.333 0.524,-0.297L0.524,-0L0.375,-0L0.375,-0.279C0.375,-0.327 0.369,-0.361 0.356,-0.381C0.343,-0.401 0.32,-0.411 0.285,-0.411C0.274,-0.411 0.263,-0.411 0.251,-0.41C0.239,-0.409 0.228,-0.407 0.219,-0.406L0.219,-0L0.07,-0L0.07,-0.508Z" style="fill:rgb(95,191,191);fill-rule:nonzero;"/>
        </g>
        <g transform="matrix(41,0,0,41,506.275,316.507)">
            <path d="M0.219,-0L0.07,-0L0.07,-0.526L0.219,-0.526L0.219,-0ZM0.233,-0.678C0.233,-0.651 0.224,-0.629 0.207,-0.614C0.189,-0.598 0.168,-0.59 0.144,-0.59C0.12,-0.59 0.099,-0.598 0.082,-0.614C0.064,-0.629 0.055,-0.651 0.055,-0.678C0.055,-0.705 0.064,-0.727 0.082,-0.743C0.099,-0.758 0.12,-0.766 0.144,-0.766C0.168,-0.766 0.189,-0.758 0.207,-0.743C0.224,-0.727 0.233,-0.705 0.233,-0.678Z" style="fill:rgb(95,191,191);fill-rule:nonzero;"/>
        </g>
        <g transform="matrix(41,0,0,41,518.944,316.507)">
            <path d="M0.065,-0.657L0.214,-0.681L0.214,-0.526L0.393,-0.526L0.393,-0.402L0.214,-0.402L0.214,-0.217C0.214,-0.186 0.22,-0.161 0.231,-0.142C0.242,-0.123 0.264,-0.114 0.297,-0.114C0.313,-0.114 0.33,-0.116 0.347,-0.119C0.364,-0.122 0.379,-0.126 0.393,-0.131L0.414,-0.015C0.396,-0.008 0.376,-0.001 0.354,0.004C0.332,0.009 0.305,0.012 0.273,0.012C0.232,0.012 0.199,0.007 0.172,-0.005C0.145,-0.016 0.124,-0.031 0.108,-0.051C0.092,-0.07 0.081,-0.094 0.075,-0.122C0.068,-0.15 0.065,-0.181 0.065,-0.215L0.065,-0.657Z" style="fill:rgb(95,191,191);fill-rule:nonzero;"/>
        </g>
        <g transform="matrix(41,0,0,41,537.968,316.507)">
            <path d="M0.537,-0.526C0.507,-0.425 0.476,-0.33 0.443,-0.241C0.41,-0.152 0.375,-0.066 0.336,0.017C0.322,0.047 0.308,0.073 0.294,0.094C0.28,0.115 0.265,0.132 0.248,0.146C0.231,0.159 0.213,0.169 0.192,0.176C0.171,0.182 0.146,0.185 0.118,0.185C0.095,0.185 0.073,0.183 0.054,0.179C0.034,0.174 0.018,0.169 0.005,0.164L0.031,0.045C0.046,0.05 0.06,0.054 0.072,0.056C0.084,0.058 0.097,0.059 0.11,0.059C0.137,0.059 0.157,0.052 0.172,0.038C0.186,0.023 0.198,0.003 0.208,-0.022C0.174,-0.089 0.14,-0.164 0.106,-0.247C0.072,-0.329 0.04,-0.423 0.01,-0.526L0.168,-0.526C0.175,-0.5 0.183,-0.472 0.192,-0.442C0.201,-0.411 0.21,-0.381 0.22,-0.35C0.23,-0.319 0.24,-0.288 0.251,-0.259C0.261,-0.23 0.271,-0.203 0.28,-0.179C0.289,-0.203 0.298,-0.23 0.307,-0.259C0.316,-0.288 0.326,-0.319 0.335,-0.35C0.343,-0.381 0.352,-0.411 0.361,-0.442C0.369,-0.472 0.376,-0.5 0.383,-0.526L0.537,-0.526Z" style="fill:rgb(95,191,191);fill-rule:nonzero;"/>
        </g>
    </g>
</svg>
